# AST/ASF file generated using VICON BodyLanguage
# -----------------------------------------------
:version 1.10
:name VICON
:units
  mass 1.0
  length 0.45
  angle deg
:documentation
   .ast/.asf automatically generated from VICON data using
   VICON BodyBuilder and BodyLanguage model FoxedUp or BRILLIANT.MOD
:root
   order TX TY TZ RX RY RZ
   axis XYZ
   position 0 0 0  
   orientation 0 0 0 
:bonedata
  begin
     id 1 
     name lhipjoint
     direction 0.662698 -0.695252 0.27831 
     length 2.53073 
     axis 0 0 0  XYZ
  end
  begin
     id 2 
     name lfemur
     direction 0.34202 -0.939693 0  
     length 7.16147  
     axis 0 0 20  XYZ
    dof rx ry rz
    limits (-160.0 20.0)
           (-70.0 70.0)
           (-60.0 70.0)
  end
  begin
     id 3 
     name ltibia
     direction 0.34202 -0.939693 0   
     length 7.63967   
     axis 0 0 20   XYZ
    dof rx
    limits (-10.0 170.0)
  end
  begin
     id 4 
     name lfoot
     direction 0.0938457 -0.257721 0.961651   
     length 1.89793   
     axis -90 7.62852e-016 20   XYZ
    dof rx rz
    limits (-45.0 90.0)
           (-70.0 20.0)
  end
  begin
     id 5 
     name ltoes
     direction -0.00116841 -0.0030592 0.999995   
     length 0.955649   
     axis -90 7.62852e-016 20   XYZ
    dof rx
    limits (-90.0 20.0)
  end
  begin
     id 6 
     name rhipjoint
     direction -0.649445 -0.705948 0.282592   
     length 2.49238  
     axis 0 0 0  XYZ 
  end
  begin
     id 7 
     name rfemur
     direction -0.34202 -0.939693 0   
     length 6.90728   
     axis 0 0 -20   XYZ
    dof rx ry rz
    limits (-160.0 20.0)
           (-70.0 70.0)
           (-70.0 60.0)
  end
  begin
     id 8 
     name rtibia
     direction -0.34202 -0.939693 0   
     length 7.72868   
     axis 0 0 -20   XYZ
    dof rx
    limits (-10.0 170.0)
 end
 begin
     id 9 
     name rfoot
     direction -0.0920068 -0.252865 0.963117   
     length 1.97476  
     axis -90 -7.62852e-016 -20   XYZ
    dof rx rz
    limits (-45.0 90.0)
           (-20.0 70.0)
  end
  begin
     id 10 
     name rtoes
     direction 0.000391322 0.00230649 0.999997   
     length 0.992641   
     axis -90 -7.62852e-016 -20   XYZ
    dof rx
    limits (-90.0 20.0)
  end
  begin
     id 11 
     name lowerback
     direction -0.00875327 0.998321 -0.0572635   
     length 2.20024   
     axis 0 0 0   XYZ
    dof rx ry rz
    limits (-20.0 45.0)
           (-30.0 30.0)
           (-30.0 30.0)
  end
  begin
     id 12 
     name upperback
     direction 0.00753931 0.999972 -0.000360425   
     length 2.20538   
     axis 0 0 0   XYZ
    dof rx ry rz
    limits (-20.0 45.0)
           (-30.0 30.0)
           (-30.0 30.0)
  end
  begin
     id 13 
     name thorax
     direction 0.0117767 0.999601 0.0256663   
     length 2.21508   
     axis 0 0 0   XYZ
    dof rx ry rz
    limits (-20.0 45.0)
           (-30.0 30.0)
           (-30.0 30.0)
  end
  begin
     id 14 
     name lowerneck
     direction 0.060228 0.994909 0.0807986   
     length 1.7607   
     axis 0 0 0   XYZ
    dof rx ry rz
    limits (-20.0 45.0)
           (-30.0 30.0)
           (-30.0 30.0)
  end
  begin
     id 15 
     name upperneck
     direction -0.0563647 0.959594 -0.275685   
     length 1.75612   
     axis 0 0 0   XYZ
    dof rx ry rz
    limits (-20.0 45.0)
           (-30.0 30.0)
           (-30.0 30.0)
  end
  begin
     id 16
     name head
     direction -0.0161544 0.99458 -0.102714  
     length 1.79288  
     axis 0 0 0   XYZ
    dof rx ry rz
    limits (-20.0 45.0)
           (-30.0 30.0)
           (-30.0 30.0)
  end
  begin
     id 17 
     name lclavicle
     direction 0.93913 0.332189 -0.087669  
     length 3.52087  
     axis 0 0 0   XYZ
    dof ry rz
    limits (-20.0 10.0)
           (0.0 20.0)
  end
  begin
     id 18 
     name lhumerus
     direction 1 -4.48974e-011 -2.70836e-027   
     length 5.35289   
     axis -180 -30 -90   XYZ
    dof rx ry rz
    limits (-60.0 90.0)
           (-90.0 90.0)
           (-90.0 90.0)
  end
  begin
     id 19
     name lradius
     direction 1 -4.48961e-011 -9.76021e-027   
     length 3.27727   
     axis -180 -30 -90   XYZ
    dof rx
    limits (-10.0 170.0)
  end
  begin
     id 20
     name lwrist
     direction 1 -4.49103e-011 -2.23668e-026   
     length 1.63864   
     axis 1.44924e-014 90 90   XYZ
    dof ry
    limits (-180.0 0.0)
 end
  begin
     id 21 
     name lhand
     direction 1 3.0697e-005 0.000161777   
     length 0.54443   
     axis 2.85318e-014 90 90   XYZ
    dof rx rz
    limits (-90.0 90.0)
           (-45.0 45.0)
  end
  begin
     id 22 
     name lfingers
     direction 1 -4.49027e-011 -8.9447e-026   
     length 0.438912   
     axis 5.70628e-014 90 90   XYZ
    dof rx
    limits (0.0 90.0)
  end
  begin
     id 23
     name lthumb
     direction 0.707058 2.6516e-005 0.707156   
     length 0.630274   
     axis -90 45 -3.53137e-014   XYZ
    dof rx rz
    limits (-45.0 45.0)
           (-45.0 45.0)
  end
  begin
     id 24 
     name rclavicle
     direction -0.95274 0.284984 -0.105215   
     length 3.43401  
     axis 0 0 0   XYZ 
    dof ry rz
    limits (-10.0 20.0)
           (-20.0 0.0)
  end
  begin
     id 25 
     name rhumerus
     direction -0.999999 -0.000575019 -0.00106829  
     length 5.52077   
     axis -180 30 90   XYZ
    dof rx ry rz
    limits (-90.0 60.0)
           (-90.0 90.0)
           (-90.0 90.0)
  end
  begin
     id 26 
     name rradius
     direction -1 -4.4879e-011 -6.35415e-027   
     length 3.32364   
     axis -180 30 90   XYZ
    dof rx
    limits (-10.0 170.0)
  end
  begin
     id 27 
     name rwrist
     direction -1 -4.49048e-011 -9.98542e-027   
     length 1.66182   
     axis 6.32482e-015 -90 -90   XYZ
    dof ry
    limits (-180.0 0.0)
  end
  begin
     id 28
     name rhand
     direction -1 -4.48978e-011 -1.99771e-026   
     length 0.732235   
     axis 1.27479e-014 -90 -90   XYZ
    dof rx rz
    limits (-90.0 90.0)
           (-45.0 45.0)
  end
  begin
     id 29
     name rfingers
     direction -1 -4.49144e-011 -3.99245e-026   
     length 0.590347   
     axis 2.5496e-014 -90 -90   XYZ
    dof rx
    limits (0.0 90.0)
  end
  begin
     id 30
     name rthumb
     direction -0.707107 -6.35121e-011 0.707107   
     length 0.847624   
     axis -90 -45 -2.82974e-014   XYZ
    dof rx rz
    limits (-45.0 45.0)
           (-45.0 45.0)
  end
:hierarchy
  begin
    root lhipjoint rhipjoint lowerback
    lhipjoint lfemur
    lfemur ltibia
    ltibia lfoot
    lfoot ltoes
    rhipjoint rfemur
    rfemur rtibia
    rtibia rfoot
    rfoot rtoes
    lowerback upperback
    upperback thorax
    thorax lowerneck lclavicle rclavicle
    lowerneck upperneck
    upperneck head
    lclavicle lhumerus
    lhumerus lradius
    lradius lwrist
    lwrist lhand lthumb
    lhand lfingers
    rclavicle rhumerus
    rhumerus rradius
    rradius rwrist
    rwrist rhand rthumb
    rhand rfingers
  end

#!OML:ASF G:\Work\Work\Patient Classification 1\Elijah\terrain1\Elijah.ASF
:FULLY-SPECIFIED
:DEGREES
591
root 9.80427 22.0108 18.8258 188.679 24.9985 181.244
lowerback 8.28728 -3.03576 1.27418
upperback 0.465331 -3.40014 5.66154
thorax -3.89381 -1.54715 5.58275
lowerneck -2.93822 15.3457 5.76185
upperneck 24.1385 34.9332 -23.5852
head 14.7885 15.8494 -3.77834
rclavicle -6.99722e-014 3.18055e-015
rhumerus -34.7148 24.5429 -83.7474
rradius 45.8848
rwrist -11.1119
rhand -11.7955 23.0689
rfingers 7.12502
rthumb 14.2541 -6.42197
lclavicle -6.99722e-014 3.18055e-015
lhumerus -50.1336 25.0511 79.0781
lradius 30.5075
lwrist -6.09356
lhand -6.83983 25.1462
lfingers 7.12502
lthumb 19.0249 54.2358
rfemur -6.08886 -2.71354 18.7451
rtibia 22.04
rfoot -25.3528 -26.7597
rtoes -10.8695
lfemur -47.5822 10.2147 -6.49904
ltibia 50.2644
lfoot -11.4079 -7.92802
ltoes -15.6992
592
root 9.79488 21.9966 18.7367 188.833 24.6725 181.491
lowerback 8.70184 -2.96678 0.384677
upperback 0.173274 -3.32938 6.10291
thorax -4.35909 -1.47509 6.5955
lowerneck -2.3522 15.0706 6.06005
upperneck 23.787 34.8685 -24.3818
head 14.7944 15.9328 -4.16735
rclavicle 1.00585e-013 3.18055e-014
rhumerus -35.4969 25.3649 -83.717
rradius 46.1598
rwrist -11.5499
rhand -11.4531 22.5906
rfingers 7.12502
rthumb 14.584 -6.87671
lclavicle 1.00585e-013 3.18055e-014
lhumerus -50.3826 25.2072 79.3767
lradius 30.1164
lwrist -6.44441
lhand -6.84367 25.4398
lfingers 7.12502
lthumb 19.0212 54.5297
rfemur -5.67584 -2.85197 18.87
rtibia 21.8625
rfoot -25.394 -26.8528
rtoes -11.4113
lfemur -47.2105 10.0718 -6.41576
ltibia 49.9997
lfoot -11.3332 -7.673
ltoes -16.1633
593
root 9.78023 21.9806 18.6105 189.067 24.9496 182.034
lowerback 7.64259 -2.56049 1.81928
upperback 0.649721 -2.82366 5.00173
thorax -3.44963 -1.29537 4.4689
lowerneck -2.33125 14.9168 7.4117
upperneck 23.6285 33.9422 -24.0188
head 14.6376 15.5941 -4.4461
rclavicle 3.18055e-014 3.81667e-014
rhumerus -35.3362 23.4797 -85.0188
rradius 46.087
rwrist -11.1813
rhand -11.4093 21.9791
rfingers 7.12502
rthumb 14.6262 -7.48513
lclavicle 3.18055e-014 3.81667e-014
lhumerus -49.2207 23.2562 78.6939
lradius 29.6863
lwrist -6.5231
lhand -7.02616 24.888
lfingers 7.12502
lthumb 18.8457 53.9951
rfemur -5.28599 -2.8042 19.0359
rtibia 21.7791
rfoot -25.2619 -26.5307
rtoes -11.6615
lfemur -46.5033 10.2344 -6.1048
ltibia 49.8561
lfoot -11.5179 -7.35665
ltoes -15.2201
594
root 9.76753 21.96 18.5239 189.308 24.6757 182.431
lowerback 7.7927 -2.43987 1.4838
upperback 0.436365 -2.67337 5.10961
thorax -3.74401 -1.21233 4.77291
lowerneck -2.4185 14.725 7.5166
upperneck 24.0915 33.6662 -23.606
head 14.709 15.4751 -4.37973
rclavicle -5.64548e-014 3.57812e-014
rhumerus -35.8484 23.4268 -85.201
rradius 46.172
rwrist -10.9687
rhand -11.4629 21.8201
rfingers 7.12502
rthumb 14.5745 -7.64785
lclavicle -5.64548e-014 3.57812e-014
lhumerus -49.4628 23.096 78.5074
lradius 29.4474
lwrist -7.23166
lhand -6.99385 24.394
lfingers 7.12502
lthumb 18.8767 53.4981
rfemur -5.04843 -2.62278 19.2975
rtibia 21.8236
rfoot -25.3543 -26.7154
rtoes -11.5984
lfemur -46.1906 10.1815 -6.0093
ltibia 49.7295
lfoot -11.1753 -7.29862
ltoes -13.6024
595
root 9.75076 21.9485 18.4297 189.61 24.4051 182.67
lowerback 7.82483 -2.34156 1.07386
upperback 0.137547 -2.57093 5.17897
thorax -4.05874 -1.15237 5.08114
lowerneck -2.42193 14.5354 7.7154
upperneck 24.5454 33.4873 -23.314
head 14.8375 15.4154 -4.34962
rclavicle -7.7526e-015 3.18055e-014
rhumerus -36.4881 23.442 -85.4482
rradius 46.1296
rwrist -10.869
rhand -11.6373 22.6016
rfingers 7.12502
rthumb 14.4065 -6.87839
lclavicle -7.7526e-015 3.18055e-014
lhumerus -49.7017 22.9152 78.2954
lradius 29.2191
lwrist -7.89844
lhand -6.7167 24.718
lfingers 7.12502
lthumb 19.1433 53.7958
rfemur -4.93843 -2.64476 19.3551
rtibia 21.8765
rfoot -25.1334 -26.7885
rtoes -12.4873
lfemur -45.989 10.2297 -6.2408
ltibia 49.6111
lfoot -11.0016 -7.16622
ltoes -14.0114
596
root 9.73089 21.9367 18.326 189.92 24.1856 183.03
lowerback 7.4035 -2.13413 1.53935
upperback 0.178596 -2.32221 4.68989
thorax -3.83754 -1.05606 4.25282
lowerneck -2.81228 14.4345 8.46626
upperneck 25.0378 33.1768 -22.8152
head 15.076 15.2715 -4.30146
rclavicle -4.47266e-014 3.26007e-014
rhumerus -36.7198 22.4522 -86.1691
rradius 46.058
rwrist -10.8399
rhand -11.7841 23.1104
rfingers 7.12502
rthumb 14.265 -6.3797
lclavicle -4.47266e-014 3.26007e-014
lhumerus -49.0462 21.7046 77.9658
lradius 28.9435
lwrist -8.01822
lhand -6.64908 24.8573
lfingers 7.12502
lthumb 19.2083 53.9287
rfemur -4.75291 -2.58523 19.4927
rtibia 21.8881
rfoot -24.762 -26.8754
rtoes -13.5332
lfemur -45.7077 10.3574 -6.41242
ltibia 49.4689
lfoot -11.4697 -7.00042
ltoes -14.9767
597
root 9.70917 21.9333 18.2166 190.212 24.0223 183.432
lowerback 7.1677 -1.94341 1.68366
upperback 0.150974 -2.08771 4.4748
thorax -3.76112 -0.950172 3.9119
lowerneck -3.20355 14.3303 8.8946
upperneck 25.5117 32.9756 -22.4148
head 15.3045 15.1651 -4.22029
rclavicle 5.28767e-014 5.32743e-014
rhumerus -37.1332 21.941 -86.578
rradius 46.1982
rwrist -10.9925
rhand -11.5591 22.5844
rfingers 7.12502
rthumb 14.4818 -6.89019
lclavicle 5.28767e-014 5.32743e-014
lhumerus -48.5236 20.912 77.7953
lradius 28.582
lwrist -8.03205
lhand -6.67386 24.8412
lfingers 7.12502
lthumb 19.1845 53.915
rfemur -4.42019 -2.48706 19.6291
rtibia 21.6531
rfoot -24.1447 -27.0028
rtoes -14.4558
lfemur -45.2904 10.3051 -6.42455
ltibia 49.326
lfoot -12.4702 -6.6345
ltoes -14.6529
598
root 9.68377 21.9453 18.1068 190.52 23.717 183.763
lowerback 7.10832 -1.81814 1.56944
upperback -0.0368194 -1.93747 4.40883
thorax -3.92935 -0.876522 3.89544
lowerneck -3.26765 14.1363 9.33549
upperneck 25.7445 32.6769 -22.2979
head 15.4116 15.0659 -4.30559
rclavicle 3.89618e-014 -1.59028e-015
rhumerus -37.6862 21.5702 -86.8033
rradius 46.2169
rwrist -10.9715
rhand -11.5233 22.2955
rfingers 7.12502
rthumb 14.5164 -7.1766
lclavicle 3.89618e-014 -1.59028e-015
lhumerus -48.1217 20.4639 77.598
lradius 27.9996
lwrist -8.31964
lhand -6.62581 25.2275
lfingers 7.12502
lthumb 19.2307 54.2967
rfemur -4.08452 -2.60232 19.702
rtibia 21.3109
rfoot -23.2742 -27.1961
rtoes -15.7825
lfemur -44.9878 9.80392 -6.2706
ltibia 49.229
lfoot -13.1931 -6.04525
ltoes -14.6425
599
root 9.65356 21.9685 17.996 190.724 23.1706 183.984
lowerback 7.10327 -1.7469 1.68084
upperback -0.202666 -1.85526 4.14426
thorax -4.11547 -0.846451 3.55196
lowerneck -3.14125 13.9442 10.0318
upperneck 25.8073 32.2628 -22.2295
head 15.427 14.9563 -4.49343
rclavicle -3.47873e-014 3.18055e-014
rhumerus -38.0885 20.7466 -87.1249
rradius 45.9987
rwrist -10.7452
rhand -11.6408 22.5427
rfingers 7.12502
rthumb 14.4032 -6.93752
lclavicle -3.47873e-014 3.18055e-014
lhumerus -47.8439 19.8965 77.2098
lradius 27.5854
lwrist -8.75869
lhand -7.14455 24.8027
lfingers 7.12502
lthumb 18.7318 53.9208
rfemur -3.7094 -2.74777 19.7124
rtibia 21.121
rfoot -22.6141 -27.3411
rtoes -16.6969
lfemur -44.8987 8.87818 -6.04123
ltibia 49.2691
lfoot -13.4937 -5.11321
ltoes -16.0862
600
root 9.6156 21.9848 17.8848 190.692 22.533 183.999
lowerback 7.58808 -1.76438 1.22365
upperback -0.47476 -1.89457 4.16144
thorax -4.65448 -0.853755 3.86047
lowerneck -2.92186 13.74 10.4171
upperneck 25.8374 32.0696 -22.3856
head 15.4671 14.9379 -4.67633
rclavicle -1.86858e-014 1.43125e-014
rhumerus -38.6974 20.4648 -87.114
rradius 45.8249
rwrist -10.6983
rhand -11.7292 22.8964
rfingers 7.12502
rthumb 14.3179 -6.58992
lclavicle -1.86858e-014 1.43125e-014
lhumerus -47.9322 19.968 76.9376
lradius 27.3737
lwrist -9.17134
lhand -7.54826 24.2953
lfingers 7.12502
lthumb 18.3435 53.4504
rfemur -3.22282 -2.90254 19.4844
rtibia 21.0888
rfoot -22.3742 -27.1869
rtoes -16.7133
lfemur -44.8824 7.87196 -6.04829
ltibia 49.5145
lfoot -13.9681 -4.01946
ltoes -18.9352
601
root 9.58759 21.9905 17.8002 191.141 22.9194 184.358
lowerback 7.50199 -1.26653 1.29939
upperback -0.523314 -1.27633 3.66764
thorax -4.70281 -0.566793 3.22833
lowerneck -3.34401 13.5644 11.0681
upperneck 26.189 31.5079 -21.9174
head 15.5779 14.6976 -4.69557
rclavicle -1.33186e-014 3.10104e-014
rhumerus -38.9397 19.0446 -87.5213
rradius 45.6462
rwrist -10.4149
rhand -12.0625 23.0813
rfingers 7.12502
rthumb 13.9968 -6.42752
lclavicle -1.33186e-014 3.10104e-014
lhumerus -46.9994 18.8752 76.5377
lradius 26.9878
lwrist -9.06136
lhand -7.78805 24.6297
lfingers 7.12502
lthumb 18.1128 53.8063
rfemur -3.43171 -2.52496 19.415
rtibia 21.2187
rfoot -21.6372 -26.6544
rtoes -17.0845
lfemur -45.0913 8.24932 -5.95584
ltibia 49.9715
lfoot -14.3345 -3.59735
ltoes -21.0268
602
root 9.54832 21.9939 17.6974 191.087 22.174 184.458
lowerback 7.62491 -1.19095 1.72336
upperback -0.450742 -1.1845 3.0964
thorax -4.72033 -0.548693 2.38394
lowerneck -4.16446 13.4824 11.4028
upperneck 26.9099 30.9668 -20.9224
head 15.759 14.4112 -4.43088
rclavicle -1.94809e-014 5.96354e-015
rhumerus -39.1095 17.5229 -87.875
rradius 45.3788
rwrist -9.89873
rhand -12.4407 22.958
rfingers 7.12502
rthumb 13.6322 -6.57559
lclavicle -1.94809e-014 5.96354e-015
lhumerus -46.1701 17.5895 76.2357
lradius 26.7614
lwrist -8.93661
lhand -8.23556 25.1112
lfingers 7.12502
lthumb 17.6822 54.3272
rfemur -3.02578 -2.96463 19.2572
rtibia 21.4399
rfoot -21.0327 -26.3504
rtoes -17.6646
lfemur -45.3014 7.51294 -6.03271
ltibia 50.4914
lfoot -14.3126 -3.99617
ltoes -20.9139
